<svg width="31" height="28" viewBox="0 0 31 28" fill="none" xmlns="http://www.w3.org/2000/svg">
<path d="M15.5 22.75C16.764 22.75 18.0156 22.5237 19.1833 22.0839C20.3511 21.6442 21.4121 20.9997 22.3059 20.1872C23.1997 19.3747 23.9086 18.4101 24.3923 17.3485C24.876 16.2869 25.125 15.1491 25.125 14C25.125 12.8509 24.876 11.7131 24.3923 10.6515C23.9086 9.58992 23.1997 8.62533 22.3059 7.81282C21.4121 7.0003 20.3511 6.35578 19.1833 5.91605C18.0156 5.47633 16.764 5.25 15.5 5.25C12.9473 5.25 10.4991 6.17187 8.6941 7.81282C6.88906 9.45376 5.875 11.6794 5.875 14C5.875 16.3206 6.88906 18.5462 8.6941 20.1872C10.4991 21.8281 12.9473 22.75 15.5 22.75ZM15.5 27.7C14.7437 27.7 14.125 27.1875 14.125 26.5V26.4C14.125 25.7125 14.7437 25.15 15.5 25.15C16.2563 25.15 16.875 25.7125 16.875 26.4C16.875 27.0875 16.2563 27.7 15.5 27.7ZM25.3175 24.175C24.96 24.175 24.6163 24.05 24.3413 23.8125L24.1625 23.65C24.0352 23.5343 23.9342 23.3969 23.8653 23.2457C23.7964 23.0945 23.761 22.9324 23.761 22.7687C23.761 22.6051 23.7964 22.443 23.8653 22.2918C23.9342 22.1406 24.0352 22.0032 24.1625 21.8875C24.2898 21.7718 24.4409 21.68 24.6073 21.6173C24.7736 21.5547 24.9518 21.5225 25.1319 21.5225C25.3119 21.5225 25.4902 21.5547 25.6565 21.6173C25.8228 21.68 25.9739 21.7718 26.1012 21.8875L26.28 22.05C26.471 22.2238 26.6012 22.4451 26.6542 22.6861C26.7072 22.927 26.6805 23.1768 26.5776 23.404C26.4747 23.6313 26.3001 23.8257 26.0759 23.9629C25.8517 24.1001 25.5878 24.1739 25.3175 24.175ZM5.6825 24.175C5.325 24.175 4.98125 24.05 4.70625 23.8125C4.57878 23.6969 4.47765 23.5595 4.40866 23.4083C4.33966 23.2571 4.30414 23.095 4.30414 22.9313C4.30414 22.7675 4.33966 22.6054 4.40866 22.4542C4.47765 22.303 4.57878 22.1656 4.70625 22.05L4.885 21.8875C5.0123 21.7718 5.16343 21.68 5.32975 21.6173C5.49608 21.5547 5.67435 21.5225 5.85438 21.5225C6.0344 21.5225 6.21267 21.5547 6.379 21.6173C6.54532 21.68 6.69645 21.7718 6.82375 21.8875C6.95105 22.0032 7.05203 22.1406 7.12092 22.2918C7.18982 22.443 7.22528 22.6051 7.22528 22.7687C7.22528 22.9324 7.18982 23.0945 7.12092 23.2457C7.05203 23.3969 6.95105 23.5343 6.82375 23.65L6.645 23.8125C6.38375 24.05 6.02625 24.175 5.6825 24.175ZM29.25 15.25H29.14C28.3838 15.25 27.765 14.6875 27.765 14C27.765 13.3125 28.3838 12.75 29.14 12.75C29.8962 12.75 30.57 13.3125 30.57 14C30.57 14.6875 30.0063 15.25 29.25 15.25ZM1.86 15.25H1.75C0.99375 15.25 0.375 14.6875 0.375 14C0.375 13.3125 0.99375 12.75 1.75 12.75C2.50625 12.75 3.18 13.3125 3.18 14C3.18 14.6875 2.61625 15.25 1.86 15.25ZM25.1388 6.4875C24.7812 6.4875 24.4375 6.3625 24.1625 6.125C24.035 6.00936 23.9339 5.872 23.8649 5.72078C23.7959 5.56956 23.7604 5.40746 23.7604 5.24375C23.7604 5.08004 23.7959 4.91794 23.8649 4.76672C23.9339 4.6155 24.035 4.47814 24.1625 4.3625L24.3413 4.2C24.4685 4.08427 24.6197 3.99247 24.786 3.92984C24.9523 3.86721 25.1306 3.83497 25.3106 3.83497C25.4907 3.83497 25.6689 3.86721 25.8352 3.92984C26.0016 3.99247 26.1527 4.08427 26.28 4.2C26.4073 4.31573 26.5083 4.45312 26.5772 4.60432C26.6461 4.75553 26.6815 4.91759 26.6815 5.08125C26.6815 5.24491 26.6461 5.40697 26.5772 5.55818C26.5083 5.70938 26.4073 5.84677 26.28 5.9625L26.1012 6.125C25.84 6.3625 25.4963 6.4875 25.1388 6.4875ZM5.86125 6.4875C5.50375 6.4875 5.16 6.3625 4.885 6.125L4.70625 5.95C4.57895 5.83427 4.47797 5.69688 4.40908 5.54568C4.34018 5.39447 4.30472 5.23241 4.30472 5.06875C4.30472 4.90509 4.34018 4.74303 4.40908 4.59182C4.47797 4.44062 4.57895 4.30323 4.70625 4.1875C4.83355 4.07177 4.98468 3.97997 5.151 3.91734C5.31733 3.85471 5.4956 3.82247 5.67562 3.82247C5.85565 3.82247 6.03392 3.85471 6.20025 3.91734C6.36657 3.97997 6.5177 4.07177 6.645 4.1875L6.82375 4.35C7.36 4.8375 7.36 5.625 6.82375 6.1125C6.5625 6.3625 6.205 6.4875 5.86125 6.4875ZM15.5 2.8C14.7437 2.8 14.125 2.2875 14.125 1.6V1.5C14.125 0.8125 14.7437 0.25 15.5 0.25C16.2563 0.25 16.875 0.8125 16.875 1.5C16.875 2.1875 16.2563 2.8 15.5 2.8Z" fill="white"/>
</svg>
