<svg width="31" height="22" viewBox="0 0 31 22" fill="none" xmlns="http://www.w3.org/2000/svg">
<path d="M28.0591 9.5375C26.9739 8.41066 25.48 7.62742 23.8154 7.3125C23.4362 5.8625 22.78 4.6125 21.8175 3.575C21.7883 3.5375 21.7591 3.5 21.73 3.475C18.5216 0.149998 13.2716 0.162498 9.72789 1.8875C6.69456 3.375 4.11331 6.5125 5.46956 10.9875C2.36331 11.6375 0.934143 13.9625 0.934143 16.0625C0.934143 18.4125 2.72789 21.05 6.72373 21.3H21.8612C23.9321 21.3 25.9154 20.6375 27.4466 19.4375C31.1071 16.6625 30.6258 12.1375 28.0591 9.5375ZM29.7333 6.9275C29.7333 7.3525 29.675 7.765 29.5291 8.165C28.4706 7.11642 27.1217 6.31264 25.6062 5.8275C25.1435 4.55716 24.4119 3.37071 23.4479 2.3275C23.725 2.2775 24.0166 2.265 24.2937 2.265C25.7364 2.265 27.12 2.75622 28.1401 3.63061C29.1602 4.505 29.7333 5.69093 29.7333 6.9275Z" fill="white"/>
</svg>
